<mxfile host="Electron" agent="Mozilla/5.0 (Windows NT 10.0; Win64; x64) AppleWebKit/537.36 (KHTML, like Gecko) draw.io/24.7.17 Chrome/128.0.6613.36 Electron/32.0.1 Safari/537.36" version="24.7.17">
  <diagram name="Page-1" id="RF8mcnZq7JSvOOZZPd_F">
    <mxGraphModel dx="1134" dy="741" grid="1" gridSize="10" guides="1" tooltips="1" connect="1" arrows="1" fold="1" page="1" pageScale="1" pageWidth="850" pageHeight="1100" math="0" shadow="0">
      <root>
        <mxCell id="0" />
        <mxCell id="1" parent="0" />
        <mxCell id="FUfTJd3P4cUJcIZCIqc--5" style="edgeStyle=orthogonalEdgeStyle;rounded=0;orthogonalLoop=1;jettySize=auto;html=1;exitX=0.5;exitY=1;exitDx=0;exitDy=0;" parent="1" edge="1">
          <mxGeometry relative="1" as="geometry">
            <mxPoint x="388.9999999999998" y="280" as="sourcePoint" />
            <mxPoint x="388.9999999999998" y="280" as="targetPoint" />
          </mxGeometry>
        </mxCell>
        <mxCell id="FUfTJd3P4cUJcIZCIqc--6" value="Customer" style="rounded=0;whiteSpace=wrap;html=1;fillColor=#fff2cc;strokeColor=#d6b656;" parent="1" vertex="1">
          <mxGeometry x="100" y="270" width="120" height="60" as="geometry" />
        </mxCell>
        <mxCell id="FUfTJd3P4cUJcIZCIqc--7" value="Supplier" style="rounded=0;whiteSpace=wrap;html=1;fillColor=#fff2cc;strokeColor=#d6b656;" parent="1" vertex="1">
          <mxGeometry x="590" y="10" width="120" height="60" as="geometry" />
        </mxCell>
        <mxCell id="FUfTJd3P4cUJcIZCIqc--8" value="Accountant" style="rounded=0;whiteSpace=wrap;html=1;fillColor=#fff2cc;strokeColor=#d6b656;" parent="1" vertex="1">
          <mxGeometry x="280" y="10" width="120" height="60" as="geometry" />
        </mxCell>
        <mxCell id="FUfTJd3P4cUJcIZCIqc--23" value="Required order" style="endArrow=classic;html=1;rounded=0;" parent="1" edge="1">
          <mxGeometry width="50" height="50" relative="1" as="geometry">
            <mxPoint x="158.89" y="322" as="sourcePoint" />
            <mxPoint x="158.89" y="460" as="targetPoint" />
          </mxGeometry>
        </mxCell>
        <mxCell id="FUfTJd3P4cUJcIZCIqc--24" value="Inventory system" style="rounded=0;whiteSpace=wrap;html=1;fillColor=#fff2cc;strokeColor=#d6b656;" parent="1" vertex="1">
          <mxGeometry x="565" y="520" width="120" height="60" as="geometry" />
        </mxCell>
        <mxCell id="ldIo1M24y2UcofaQpF39-3" value="1&lt;br&gt;&lt;br&gt;Choose order" style="rounded=1;whiteSpace=wrap;html=1;fillColor=#dae8fc;strokeColor=#6c8ebf;" parent="1" vertex="1">
          <mxGeometry x="100" y="460" width="120" height="60" as="geometry" />
        </mxCell>
        <mxCell id="ldIo1M24y2UcofaQpF39-6" value="" style="endArrow=none;html=1;rounded=0;exitX=0;exitY=0.25;exitDx=0;exitDy=0;entryX=1;entryY=0.25;entryDx=0;entryDy=0;" parent="1" source="ldIo1M24y2UcofaQpF39-3" target="ldIo1M24y2UcofaQpF39-3" edge="1">
          <mxGeometry width="50" height="50" relative="1" as="geometry">
            <mxPoint x="390" y="260" as="sourcePoint" />
            <mxPoint x="440" y="210" as="targetPoint" />
          </mxGeometry>
        </mxCell>
        <mxCell id="ldIo1M24y2UcofaQpF39-7" value="order" style="endArrow=classic;html=1;rounded=0;exitX=0.5;exitY=1;exitDx=0;exitDy=0;" parent="1" source="ldIo1M24y2UcofaQpF39-3" edge="1">
          <mxGeometry width="50" height="50" relative="1" as="geometry">
            <mxPoint x="350" y="290" as="sourcePoint" />
            <mxPoint x="160" y="640" as="targetPoint" />
          </mxGeometry>
        </mxCell>
        <mxCell id="ldIo1M24y2UcofaQpF39-8" value="2&lt;br&gt;&lt;br&gt;&lt;br&gt;send order to the staff" style="rounded=1;whiteSpace=wrap;html=1;fillColor=#dae8fc;strokeColor=#6c8ebf;" parent="1" vertex="1">
          <mxGeometry x="100" y="650" width="120" height="60" as="geometry" />
        </mxCell>
        <mxCell id="ldIo1M24y2UcofaQpF39-10" value="" style="endArrow=none;html=1;rounded=0;exitX=0;exitY=0.25;exitDx=0;exitDy=0;entryX=1;entryY=0.25;entryDx=0;entryDy=0;" parent="1" source="ldIo1M24y2UcofaQpF39-8" target="ldIo1M24y2UcofaQpF39-8" edge="1">
          <mxGeometry width="50" height="50" relative="1" as="geometry">
            <mxPoint x="400" y="360" as="sourcePoint" />
            <mxPoint x="450" y="310" as="targetPoint" />
            <Array as="points" />
          </mxGeometry>
        </mxCell>
        <mxCell id="ldIo1M24y2UcofaQpF39-11" value="3&lt;br&gt;&lt;br&gt;&lt;br&gt;check order" style="rounded=1;whiteSpace=wrap;html=1;fillColor=#dae8fc;strokeColor=#6c8ebf;" parent="1" vertex="1">
          <mxGeometry x="365" y="640" width="120" height="60" as="geometry" />
        </mxCell>
        <mxCell id="ldIo1M24y2UcofaQpF39-12" value="" style="endArrow=none;html=1;rounded=0;exitX=0;exitY=0.25;exitDx=0;exitDy=0;entryX=1;entryY=0.25;entryDx=0;entryDy=0;" parent="1" source="ldIo1M24y2UcofaQpF39-11" target="ldIo1M24y2UcofaQpF39-11" edge="1">
          <mxGeometry width="50" height="50" relative="1" as="geometry">
            <mxPoint x="440" y="340" as="sourcePoint" />
            <mxPoint x="490" y="290" as="targetPoint" />
          </mxGeometry>
        </mxCell>
        <mxCell id="ldIo1M24y2UcofaQpF39-13" value="order" style="endArrow=classic;html=1;rounded=0;entryX=0;entryY=0.5;entryDx=0;entryDy=0;" parent="1" target="ldIo1M24y2UcofaQpF39-11" edge="1">
          <mxGeometry width="50" height="50" relative="1" as="geometry">
            <mxPoint x="220" y="670" as="sourcePoint" />
            <mxPoint x="490" y="290" as="targetPoint" />
          </mxGeometry>
        </mxCell>
        <mxCell id="ldIo1M24y2UcofaQpF39-14" value="D1&amp;nbsp; &amp;nbsp; orders Data" style="html=1;dashed=0;whiteSpace=wrap;shape=mxgraph.dfd.dataStoreID;align=left;spacingLeft=3;points=[[0,0],[0.5,0],[1,0],[0,0.5],[1,0.5],[0,1],[0.5,1],[1,1]];fillColor=#f5f5f5;fontColor=#333333;strokeColor=#666666;" parent="1" vertex="1">
          <mxGeometry x="330" y="780" width="130" height="30" as="geometry" />
        </mxCell>
        <mxCell id="ldIo1M24y2UcofaQpF39-15" value="&lt;h3&gt;order information&lt;/h3&gt;" style="endArrow=classic;html=1;rounded=0;exitX=0;exitY=1;exitDx=0;exitDy=0;entryX=0;entryY=0.5;entryDx=0;entryDy=0;" parent="1" source="ldIo1M24y2UcofaQpF39-11" target="ldIo1M24y2UcofaQpF39-14" edge="1">
          <mxGeometry x="0.2889" y="25" width="50" height="50" relative="1" as="geometry">
            <mxPoint x="440" y="400" as="sourcePoint" />
            <mxPoint x="380" y="470" as="targetPoint" />
            <Array as="points">
              <mxPoint x="240" y="700" />
              <mxPoint x="180" y="750" />
              <mxPoint x="190" y="795" />
            </Array>
            <mxPoint x="-1" as="offset" />
          </mxGeometry>
        </mxCell>
        <mxCell id="ldIo1M24y2UcofaQpF39-22" value="orders information" style="endArrow=classic;html=1;rounded=0;" parent="1" edge="1">
          <mxGeometry width="50" height="50" relative="1" as="geometry">
            <mxPoint x="470" y="800" as="sourcePoint" />
            <mxPoint x="640" y="710" as="targetPoint" />
            <Array as="points">
              <mxPoint x="640" y="800" />
            </Array>
          </mxGeometry>
        </mxCell>
        <mxCell id="ldIo1M24y2UcofaQpF39-23" value="D2&amp;nbsp; &amp;nbsp; &amp;nbsp;Inventory data" style="html=1;dashed=0;whiteSpace=wrap;shape=mxgraph.dfd.dataStoreID;align=left;spacingLeft=3;points=[[0,0],[0.5,0],[1,0],[0,0.5],[1,0.5],[0,1],[0.5,1],[1,1]];fillColor=#f5f5f5;fontColor=#333333;strokeColor=#666666;" parent="1" vertex="1">
          <mxGeometry x="550" y="210" width="150" height="30" as="geometry" />
        </mxCell>
        <mxCell id="ldIo1M24y2UcofaQpF39-27" value="Consumption of orders" style="endArrow=classic;html=1;rounded=0;" parent="1" edge="1">
          <mxGeometry x="-0.2857" width="50" height="50" relative="1" as="geometry">
            <mxPoint x="629.09" y="630" as="sourcePoint" />
            <mxPoint x="629" y="580" as="targetPoint" />
            <mxPoint y="1" as="offset" />
          </mxGeometry>
        </mxCell>
        <mxCell id="ldIo1M24y2UcofaQpF39-28" value="5&lt;div&gt;Checking for missing inventory&lt;br&gt;&lt;/div&gt;" style="rounded=1;whiteSpace=wrap;html=1;fillColor=#dae8fc;strokeColor=#6c8ebf;" parent="1" vertex="1">
          <mxGeometry x="580" y="400" width="120" height="60" as="geometry" />
        </mxCell>
        <mxCell id="ldIo1M24y2UcofaQpF39-29" value="" style="endArrow=none;html=1;rounded=0;entryX=1;entryY=0.25;entryDx=0;entryDy=0;exitX=0;exitY=0.25;exitDx=0;exitDy=0;" parent="1" source="ldIo1M24y2UcofaQpF39-28" target="ldIo1M24y2UcofaQpF39-28" edge="1">
          <mxGeometry width="50" height="50" relative="1" as="geometry">
            <mxPoint x="500" y="230" as="sourcePoint" />
            <mxPoint x="550" y="180" as="targetPoint" />
          </mxGeometry>
        </mxCell>
        <mxCell id="ldIo1M24y2UcofaQpF39-30" value="inventory informayion" style="endArrow=classic;html=1;rounded=0;exitX=0.368;exitY=-0.005;exitDx=0;exitDy=0;exitPerimeter=0;entryX=0.5;entryY=1;entryDx=0;entryDy=0;" parent="1" source="_h_QMxrKm3p6EvbgkX6D-3" target="ldIo1M24y2UcofaQpF39-23" edge="1">
          <mxGeometry width="50" height="50" relative="1" as="geometry">
            <mxPoint x="500" y="390" as="sourcePoint" />
            <mxPoint x="430" y="190" as="targetPoint" />
          </mxGeometry>
        </mxCell>
        <mxCell id="ldIo1M24y2UcofaQpF39-32" value="needs" style="endArrow=classic;html=1;rounded=0;entryX=0.5;entryY=1;entryDx=0;entryDy=0;" parent="1" target="FUfTJd3P4cUJcIZCIqc--7" edge="1">
          <mxGeometry width="50" height="50" relative="1" as="geometry">
            <mxPoint x="650" y="120" as="sourcePoint" />
            <mxPoint x="610" y="200" as="targetPoint" />
          </mxGeometry>
        </mxCell>
        <mxCell id="ldIo1M24y2UcofaQpF39-37" value="8&lt;br&gt;&lt;br&gt;Excute the order" style="rounded=1;whiteSpace=wrap;html=1;fillColor=#dae8fc;strokeColor=#6c8ebf;" parent="1" vertex="1">
          <mxGeometry x="350" y="490" width="120" height="60" as="geometry" />
        </mxCell>
        <mxCell id="ldIo1M24y2UcofaQpF39-38" value="" style="endArrow=none;html=1;rounded=0;exitX=0;exitY=0.25;exitDx=0;exitDy=0;entryX=1;entryY=0.25;entryDx=0;entryDy=0;" parent="1" source="ldIo1M24y2UcofaQpF39-37" target="ldIo1M24y2UcofaQpF39-37" edge="1">
          <mxGeometry width="50" height="50" relative="1" as="geometry">
            <mxPoint x="350" y="480" as="sourcePoint" />
            <mxPoint x="400" y="430" as="targetPoint" />
          </mxGeometry>
        </mxCell>
        <mxCell id="ldIo1M24y2UcofaQpF39-39" value="info about order" style="endArrow=classic;html=1;rounded=0;" parent="1" edge="1">
          <mxGeometry width="50" height="50" relative="1" as="geometry">
            <mxPoint x="410" y="630" as="sourcePoint" />
            <mxPoint x="410" y="560" as="targetPoint" />
          </mxGeometry>
        </mxCell>
        <mxCell id="ldIo1M24y2UcofaQpF39-18" value="4&lt;div&gt;&lt;br&gt;&lt;/div&gt;&lt;div&gt;Processing orders&lt;br&gt;&lt;/div&gt;" style="rounded=1;whiteSpace=wrap;html=1;fillColor=#dae8fc;strokeColor=#6c8ebf;" parent="1" vertex="1">
          <mxGeometry x="570" y="640" width="120" height="60" as="geometry" />
        </mxCell>
        <mxCell id="ldIo1M24y2UcofaQpF39-43" value="" style="endArrow=none;html=1;rounded=0;entryX=1;entryY=0.25;entryDx=0;entryDy=0;exitX=0;exitY=0.25;exitDx=0;exitDy=0;" parent="1" source="ldIo1M24y2UcofaQpF39-18" target="ldIo1M24y2UcofaQpF39-18" edge="1">
          <mxGeometry width="50" height="50" relative="1" as="geometry">
            <mxPoint x="570" y="670" as="sourcePoint" />
            <mxPoint x="400" y="780" as="targetPoint" />
          </mxGeometry>
        </mxCell>
        <mxCell id="ldIo1M24y2UcofaQpF39-44" value="information about inventory" style="endArrow=classic;html=1;rounded=0;exitX=0.613;exitY=-0.02;exitDx=0;exitDy=0;exitPerimeter=0;" parent="1" source="FUfTJd3P4cUJcIZCIqc--24" edge="1">
          <mxGeometry width="50" height="50" relative="1" as="geometry">
            <mxPoint x="640" y="470" as="sourcePoint" />
            <mxPoint x="640" y="460" as="targetPoint" />
          </mxGeometry>
        </mxCell>
        <mxCell id="ldIo1M24y2UcofaQpF39-47" value="Materials" style="endArrow=classic;html=1;rounded=0;exitX=1;exitY=0.5;exitDx=0;exitDy=0;" parent="1" source="FUfTJd3P4cUJcIZCIqc--7" edge="1">
          <mxGeometry x="0.0233" width="50" height="50" relative="1" as="geometry">
            <mxPoint x="760" y="100" as="sourcePoint" />
            <mxPoint x="800" y="150" as="targetPoint" />
            <Array as="points">
              <mxPoint x="800" y="40" />
            </Array>
            <mxPoint as="offset" />
          </mxGeometry>
        </mxCell>
        <mxCell id="ldIo1M24y2UcofaQpF39-48" value="order information" style="endArrow=classic;html=1;rounded=0;entryX=0;entryY=0.5;entryDx=0;entryDy=0;exitX=0;exitY=0.75;exitDx=0;exitDy=0;" parent="1" target="FUfTJd3P4cUJcIZCIqc--8" edge="1" source="ldIo1M24y2UcofaQpF39-3">
          <mxGeometry x="-0.4118" y="-20" width="50" height="50" relative="1" as="geometry">
            <mxPoint x="100" y="800" as="sourcePoint" />
            <mxPoint x="280" y="120" as="targetPoint" />
            <Array as="points">
              <mxPoint x="40" y="505" />
              <mxPoint x="40" y="490" />
              <mxPoint x="40" y="40" />
            </Array>
            <mxPoint as="offset" />
          </mxGeometry>
        </mxCell>
        <mxCell id="_h_QMxrKm3p6EvbgkX6D-3" value="6&lt;br&gt;&lt;br&gt;Modify inventory data" style="rounded=1;whiteSpace=wrap;html=1;fillColor=#dae8fc;strokeColor=#6c8ebf;" parent="1" vertex="1">
          <mxGeometry x="580" y="280" width="120" height="60" as="geometry" />
        </mxCell>
        <mxCell id="_h_QMxrKm3p6EvbgkX6D-4" value="" style="endArrow=none;html=1;rounded=0;entryX=1;entryY=0.25;entryDx=0;entryDy=0;exitX=0;exitY=0.25;exitDx=0;exitDy=0;" parent="1" source="_h_QMxrKm3p6EvbgkX6D-3" target="_h_QMxrKm3p6EvbgkX6D-3" edge="1">
          <mxGeometry width="50" height="50" relative="1" as="geometry">
            <mxPoint x="430" y="450" as="sourcePoint" />
            <mxPoint x="480" y="400" as="targetPoint" />
          </mxGeometry>
        </mxCell>
        <mxCell id="_h_QMxrKm3p6EvbgkX6D-5" value="missing&amp;nbsp; inventory" style="endArrow=classic;html=1;rounded=0;exitX=0.5;exitY=0;exitDx=0;exitDy=0;" parent="1" source="ldIo1M24y2UcofaQpF39-28" edge="1">
          <mxGeometry width="50" height="50" relative="1" as="geometry">
            <mxPoint x="650" y="480" as="sourcePoint" />
            <mxPoint x="640" y="340" as="targetPoint" />
          </mxGeometry>
        </mxCell>
        <mxCell id="_h_QMxrKm3p6EvbgkX6D-9" value="7&lt;br&gt;&lt;br&gt;Checking the required materials" style="rounded=1;whiteSpace=wrap;html=1;fillColor=#dae8fc;strokeColor=#6c8ebf;" parent="1" vertex="1">
          <mxGeometry x="590" y="120" width="120" height="60" as="geometry" />
        </mxCell>
        <mxCell id="_h_QMxrKm3p6EvbgkX6D-10" value="info" style="endArrow=classic;html=1;rounded=0;entryX=0.5;entryY=1;entryDx=0;entryDy=0;" parent="1" target="_h_QMxrKm3p6EvbgkX6D-9" edge="1">
          <mxGeometry width="50" height="50" relative="1" as="geometry">
            <mxPoint x="650" y="209" as="sourcePoint" />
            <mxPoint x="540" y="350" as="targetPoint" />
          </mxGeometry>
        </mxCell>
        <mxCell id="_h_QMxrKm3p6EvbgkX6D-11" value="" style="endArrow=none;html=1;rounded=0;entryX=1;entryY=0.25;entryDx=0;entryDy=0;exitX=0;exitY=0.25;exitDx=0;exitDy=0;" parent="1" source="_h_QMxrKm3p6EvbgkX6D-9" target="_h_QMxrKm3p6EvbgkX6D-9" edge="1">
          <mxGeometry width="50" height="50" relative="1" as="geometry">
            <mxPoint x="490" y="400" as="sourcePoint" />
            <mxPoint x="540" y="350" as="targetPoint" />
          </mxGeometry>
        </mxCell>
        <mxCell id="_h_QMxrKm3p6EvbgkX6D-14" value="order" style="endArrow=classic;html=1;rounded=0;" parent="1" edge="1">
          <mxGeometry width="50" height="50" relative="1" as="geometry">
            <mxPoint x="410" y="480" as="sourcePoint" />
            <mxPoint x="410" y="390" as="targetPoint" />
          </mxGeometry>
        </mxCell>
        <mxCell id="_h_QMxrKm3p6EvbgkX6D-15" value="9&lt;br&gt;Submit the order to the delivery agent" style="rounded=1;whiteSpace=wrap;html=1;fillColor=#dae8fc;strokeColor=#6c8ebf;" parent="1" vertex="1">
          <mxGeometry x="350" y="320" width="120" height="60" as="geometry" />
        </mxCell>
        <mxCell id="_h_QMxrKm3p6EvbgkX6D-16" value="" style="endArrow=none;html=1;rounded=0;exitX=0;exitY=0.25;exitDx=0;exitDy=0;entryX=1;entryY=0.25;entryDx=0;entryDy=0;" parent="1" source="_h_QMxrKm3p6EvbgkX6D-15" target="_h_QMxrKm3p6EvbgkX6D-15" edge="1">
          <mxGeometry width="50" height="50" relative="1" as="geometry">
            <mxPoint x="380" y="400" as="sourcePoint" />
            <mxPoint x="430" y="350" as="targetPoint" />
          </mxGeometry>
        </mxCell>
        <mxCell id="_h_QMxrKm3p6EvbgkX6D-17" value="Delivery" style="rounded=0;whiteSpace=wrap;html=1;fillColor=#fff2cc;strokeColor=#d6b656;" parent="1" vertex="1">
          <mxGeometry x="350" y="220" width="120" height="60" as="geometry" />
        </mxCell>
        <mxCell id="_h_QMxrKm3p6EvbgkX6D-18" value="order" style="endArrow=classic;html=1;rounded=0;entryX=0.5;entryY=1;entryDx=0;entryDy=0;exitX=0.5;exitY=0;exitDx=0;exitDy=0;" parent="1" source="_h_QMxrKm3p6EvbgkX6D-15" target="_h_QMxrKm3p6EvbgkX6D-17" edge="1">
          <mxGeometry width="50" height="50" relative="1" as="geometry">
            <mxPoint x="380" y="370" as="sourcePoint" />
            <mxPoint x="430" y="320" as="targetPoint" />
          </mxGeometry>
        </mxCell>
        <mxCell id="gyvbCT0JUO8c0yDqxka3-1" value="Handing order and invoices" style="rounded=1;whiteSpace=wrap;html=1;fillColor=#dae8fc;strokeColor=#6c8ebf;" parent="1" vertex="1">
          <mxGeometry x="210" y="160" width="120" height="60" as="geometry" />
        </mxCell>
        <mxCell id="gyvbCT0JUO8c0yDqxka3-2" value="" style="endArrow=none;html=1;rounded=0;exitX=0;exitY=0.25;exitDx=0;exitDy=0;entryX=1;entryY=0.25;entryDx=0;entryDy=0;" parent="1" source="gyvbCT0JUO8c0yDqxka3-1" target="gyvbCT0JUO8c0yDqxka3-1" edge="1">
          <mxGeometry width="50" height="50" relative="1" as="geometry">
            <mxPoint x="460" y="380" as="sourcePoint" />
            <mxPoint x="510" y="330" as="targetPoint" />
          </mxGeometry>
        </mxCell>
        <mxCell id="gyvbCT0JUO8c0yDqxka3-3" value="order and invoices" style="endArrow=classic;html=1;rounded=0;exitX=0.5;exitY=0;exitDx=0;exitDy=0;" parent="1" source="_h_QMxrKm3p6EvbgkX6D-17" edge="1">
          <mxGeometry x="0.3333" y="20" width="50" height="50" relative="1" as="geometry">
            <mxPoint x="460" y="380" as="sourcePoint" />
            <mxPoint x="330" y="180" as="targetPoint" />
            <Array as="points">
              <mxPoint x="410" y="180" />
            </Array>
            <mxPoint as="offset" />
          </mxGeometry>
        </mxCell>
        <mxCell id="gyvbCT0JUO8c0yDqxka3-4" value="order and invoices" style="endArrow=classic;html=1;rounded=0;exitX=0;exitY=0.5;exitDx=0;exitDy=0;" parent="1" source="gyvbCT0JUO8c0yDqxka3-1" edge="1">
          <mxGeometry x="0.3333" width="50" height="50" relative="1" as="geometry">
            <mxPoint x="460" y="380" as="sourcePoint" />
            <mxPoint x="140" y="270" as="targetPoint" />
            <Array as="points">
              <mxPoint x="140" y="190" />
            </Array>
            <mxPoint as="offset" />
          </mxGeometry>
        </mxCell>
        <mxCell id="gyvbCT0JUO8c0yDqxka3-5" value="handing invoices" style="rounded=1;whiteSpace=wrap;html=1;fillColor=#dae8fc;strokeColor=#6c8ebf;" parent="1" vertex="1">
          <mxGeometry x="410" y="80" width="120" height="60" as="geometry" />
        </mxCell>
        <mxCell id="gyvbCT0JUO8c0yDqxka3-6" value="" style="endArrow=none;html=1;rounded=0;exitX=0;exitY=0.25;exitDx=0;exitDy=0;entryX=1;entryY=0.25;entryDx=0;entryDy=0;" parent="1" source="gyvbCT0JUO8c0yDqxka3-5" target="gyvbCT0JUO8c0yDqxka3-5" edge="1">
          <mxGeometry width="50" height="50" relative="1" as="geometry">
            <mxPoint x="480" y="380" as="sourcePoint" />
            <mxPoint x="530" y="330" as="targetPoint" />
          </mxGeometry>
        </mxCell>
        <mxCell id="gyvbCT0JUO8c0yDqxka3-7" value="invoices" style="endArrow=classic;html=1;rounded=0;exitX=1;exitY=0.5;exitDx=0;exitDy=0;" parent="1" source="FUfTJd3P4cUJcIZCIqc--8" edge="1">
          <mxGeometry width="50" height="50" relative="1" as="geometry">
            <mxPoint x="480" y="400" as="sourcePoint" />
            <mxPoint x="480" y="90" as="targetPoint" />
            <Array as="points">
              <mxPoint x="480" y="40" />
            </Array>
          </mxGeometry>
        </mxCell>
        <mxCell id="gyvbCT0JUO8c0yDqxka3-8" value="invoices" style="endArrow=classic;html=1;rounded=0;exitX=0.5;exitY=1;exitDx=0;exitDy=0;entryX=0.75;entryY=0;entryDx=0;entryDy=0;" parent="1" source="gyvbCT0JUO8c0yDqxka3-5" target="_h_QMxrKm3p6EvbgkX6D-17" edge="1">
          <mxGeometry x="-0.541" y="21" width="50" height="50" relative="1" as="geometry">
            <mxPoint x="480" y="400" as="sourcePoint" />
            <mxPoint x="530" y="350" as="targetPoint" />
            <Array as="points">
              <mxPoint x="440" y="170" />
            </Array>
            <mxPoint as="offset" />
          </mxGeometry>
        </mxCell>
        <mxCell id="gyvbCT0JUO8c0yDqxka3-9" value="Reciving money" style="rounded=1;whiteSpace=wrap;html=1;fillColor=#dae8fc;strokeColor=#6c8ebf;" parent="1" vertex="1">
          <mxGeometry x="80" y="70" width="120" height="60" as="geometry" />
        </mxCell>
        <mxCell id="gyvbCT0JUO8c0yDqxka3-10" value="" style="endArrow=none;html=1;rounded=0;exitX=0;exitY=0.25;exitDx=0;exitDy=0;entryX=1;entryY=0.25;entryDx=0;entryDy=0;" parent="1" source="gyvbCT0JUO8c0yDqxka3-9" target="gyvbCT0JUO8c0yDqxka3-9" edge="1">
          <mxGeometry width="50" height="50" relative="1" as="geometry">
            <mxPoint x="480" y="410" as="sourcePoint" />
            <mxPoint x="530" y="360" as="targetPoint" />
          </mxGeometry>
        </mxCell>
        <mxCell id="gyvbCT0JUO8c0yDqxka3-12" value="Money" style="endArrow=classic;html=1;rounded=0;exitX=0;exitY=0.5;exitDx=0;exitDy=0;entryX=0.16;entryY=1.037;entryDx=0;entryDy=0;entryPerimeter=0;" parent="1" source="FUfTJd3P4cUJcIZCIqc--6" target="gyvbCT0JUO8c0yDqxka3-9" edge="1">
          <mxGeometry width="50" height="50" relative="1" as="geometry">
            <mxPoint x="480" y="410" as="sourcePoint" />
            <mxPoint x="530" y="360" as="targetPoint" />
            <Array as="points">
              <mxPoint x="70" y="300" />
              <mxPoint x="70" y="200" />
              <mxPoint x="99" y="170" />
            </Array>
          </mxGeometry>
        </mxCell>
        <mxCell id="gyvbCT0JUO8c0yDqxka3-13" value="money" style="endArrow=classic;html=1;rounded=0;entryX=0;entryY=0.5;entryDx=0;entryDy=0;exitX=0.91;exitY=1;exitDx=0;exitDy=0;exitPerimeter=0;" parent="1" source="gyvbCT0JUO8c0yDqxka3-9" target="_h_QMxrKm3p6EvbgkX6D-17" edge="1">
          <mxGeometry width="50" height="50" relative="1" as="geometry">
            <mxPoint x="200" y="80" as="sourcePoint" />
            <mxPoint x="530" y="360" as="targetPoint" />
            <Array as="points">
              <mxPoint x="189" y="250" />
            </Array>
          </mxGeometry>
        </mxCell>
        <mxCell id="gyvbCT0JUO8c0yDqxka3-14" value="hading money to accounting" style="rounded=1;whiteSpace=wrap;html=1;fillColor=#dae8fc;strokeColor=#6c8ebf;" parent="1" vertex="1">
          <mxGeometry x="220" y="80" width="120" height="60" as="geometry" />
        </mxCell>
        <mxCell id="gyvbCT0JUO8c0yDqxka3-15" value="" style="endArrow=none;html=1;rounded=0;exitX=0;exitY=0.25;exitDx=0;exitDy=0;entryX=1;entryY=0.25;entryDx=0;entryDy=0;" parent="1" source="gyvbCT0JUO8c0yDqxka3-14" target="gyvbCT0JUO8c0yDqxka3-14" edge="1">
          <mxGeometry width="50" height="50" relative="1" as="geometry">
            <mxPoint x="480" y="430" as="sourcePoint" />
            <mxPoint x="530" y="380" as="targetPoint" />
          </mxGeometry>
        </mxCell>
        <mxCell id="gyvbCT0JUO8c0yDqxka3-16" value="money" style="endArrow=classic;html=1;rounded=0;entryX=1;entryY=0.5;entryDx=0;entryDy=0;" parent="1" target="gyvbCT0JUO8c0yDqxka3-14" edge="1">
          <mxGeometry x="0.6592" y="-10" width="50" height="50" relative="1" as="geometry">
            <mxPoint x="424" y="220" as="sourcePoint" />
            <mxPoint x="530" y="380" as="targetPoint" />
            <Array as="points">
              <mxPoint x="424" y="160" />
              <mxPoint x="390" y="110" />
            </Array>
            <mxPoint x="1" as="offset" />
          </mxGeometry>
        </mxCell>
        <mxCell id="gyvbCT0JUO8c0yDqxka3-17" value="Money" style="endArrow=classic;html=1;rounded=0;exitX=0.105;exitY=0.019;exitDx=0;exitDy=0;entryX=0;entryY=0.25;entryDx=0;entryDy=0;exitPerimeter=0;" parent="1" source="gyvbCT0JUO8c0yDqxka3-14" target="FUfTJd3P4cUJcIZCIqc--8" edge="1">
          <mxGeometry x="0.2244" y="5" width="50" height="50" relative="1" as="geometry">
            <mxPoint x="480" y="430" as="sourcePoint" />
            <mxPoint x="530" y="380" as="targetPoint" />
            <Array as="points">
              <mxPoint x="233" y="25" />
            </Array>
            <mxPoint as="offset" />
          </mxGeometry>
        </mxCell>
        <mxCell id="KQ1IDlLt9YbdQGe_aNdS-1" value="recieving materials" style="rounded=1;whiteSpace=wrap;html=1;fillColor=#dae8fc;strokeColor=#6c8ebf;" parent="1" vertex="1">
          <mxGeometry x="720" y="150" width="120" height="60" as="geometry" />
        </mxCell>
        <mxCell id="KQ1IDlLt9YbdQGe_aNdS-2" value="" style="endArrow=none;html=1;rounded=0;entryX=1;entryY=0.25;entryDx=0;entryDy=0;exitX=0;exitY=0.25;exitDx=0;exitDy=0;" parent="1" source="KQ1IDlLt9YbdQGe_aNdS-1" target="KQ1IDlLt9YbdQGe_aNdS-1" edge="1">
          <mxGeometry width="50" height="50" relative="1" as="geometry">
            <mxPoint x="430" y="330" as="sourcePoint" />
            <mxPoint x="480" y="280" as="targetPoint" />
          </mxGeometry>
        </mxCell>
        <mxCell id="KQ1IDlLt9YbdQGe_aNdS-3" value="Materials" style="endArrow=classic;html=1;rounded=0;exitX=0.5;exitY=1;exitDx=0;exitDy=0;" parent="1" source="KQ1IDlLt9YbdQGe_aNdS-1" edge="1">
          <mxGeometry width="50" height="50" relative="1" as="geometry">
            <mxPoint x="430" y="330" as="sourcePoint" />
            <mxPoint x="710" y="230" as="targetPoint" />
            <Array as="points">
              <mxPoint x="780" y="230" />
            </Array>
          </mxGeometry>
        </mxCell>
      </root>
    </mxGraphModel>
  </diagram>
</mxfile>
